<mxfile host="app.diagrams.net" modified="2023-06-02T09:35:36.736Z" agent="Mozilla/5.0 (Windows NT 10.0; Win64; x64) AppleWebKit/537.36 (KHTML, like Gecko) Chrome/113.0.0.0 Safari/537.36" etag="P1TxID542hCaNJP1JK12" version="21.3.7" type="github">
  <diagram id="C5RBs43oDa-KdzZeNtuy" name="Page-1">
    <mxGraphModel dx="988" dy="550" grid="1" gridSize="10" guides="1" tooltips="1" connect="1" arrows="1" fold="1" page="1" pageScale="1" pageWidth="827" pageHeight="1169" math="0" shadow="0">
      <root>
        <mxCell id="WIyWlLk6GJQsqaUBKTNV-0" />
        <mxCell id="WIyWlLk6GJQsqaUBKTNV-1" parent="WIyWlLk6GJQsqaUBKTNV-0" />
        <mxCell id="pjBFuyBz4JkAL8npBEX2-8" style="edgeStyle=orthogonalEdgeStyle;rounded=0;orthogonalLoop=1;jettySize=auto;html=1;entryX=0.5;entryY=0;entryDx=0;entryDy=0;" edge="1" parent="WIyWlLk6GJQsqaUBKTNV-1" source="pjBFuyBz4JkAL8npBEX2-0" target="pjBFuyBz4JkAL8npBEX2-2">
          <mxGeometry relative="1" as="geometry" />
        </mxCell>
        <mxCell id="pjBFuyBz4JkAL8npBEX2-0" value="UserAPI (Photon)" style="rounded=0;whiteSpace=wrap;html=1;" vertex="1" parent="WIyWlLk6GJQsqaUBKTNV-1">
          <mxGeometry x="80" y="10" width="120" height="40" as="geometry" />
        </mxCell>
        <mxCell id="pjBFuyBz4JkAL8npBEX2-17" style="edgeStyle=orthogonalEdgeStyle;rounded=0;orthogonalLoop=1;jettySize=auto;html=1;exitX=0.5;exitY=1;exitDx=0;exitDy=0;entryX=0.5;entryY=0;entryDx=0;entryDy=0;" edge="1" parent="WIyWlLk6GJQsqaUBKTNV-1" source="pjBFuyBz4JkAL8npBEX2-1">
          <mxGeometry relative="1" as="geometry">
            <mxPoint x="140" y="250" as="targetPoint" />
          </mxGeometry>
        </mxCell>
        <mxCell id="pjBFuyBz4JkAL8npBEX2-1" value="Server Connect&lt;br&gt;@ Func 1 : ServerConnect" style="rounded=0;whiteSpace=wrap;html=1;" vertex="1" parent="WIyWlLk6GJQsqaUBKTNV-1">
          <mxGeometry x="40" y="180" width="200" height="40" as="geometry" />
        </mxCell>
        <mxCell id="pjBFuyBz4JkAL8npBEX2-6" style="edgeStyle=orthogonalEdgeStyle;rounded=0;orthogonalLoop=1;jettySize=auto;html=1;" edge="1" parent="WIyWlLk6GJQsqaUBKTNV-1" source="pjBFuyBz4JkAL8npBEX2-2" target="pjBFuyBz4JkAL8npBEX2-1">
          <mxGeometry relative="1" as="geometry" />
        </mxCell>
        <mxCell id="pjBFuyBz4JkAL8npBEX2-2" value="Server Connect Info" style="swimlane;whiteSpace=wrap;html=1;" vertex="1" parent="WIyWlLk6GJQsqaUBKTNV-1">
          <mxGeometry x="40" y="80" width="200" height="70" as="geometry" />
        </mxCell>
        <mxCell id="pjBFuyBz4JkAL8npBEX2-3" value="1. Photon Id&amp;nbsp;&lt;br&gt;2. Game Version = &quot;1.0.0&quot;" style="text;html=1;align=left;verticalAlign=middle;resizable=0;points=[];autosize=1;strokeColor=none;fillColor=none;" vertex="1" parent="pjBFuyBz4JkAL8npBEX2-2">
          <mxGeometry y="20" width="160" height="40" as="geometry" />
        </mxCell>
        <mxCell id="pjBFuyBz4JkAL8npBEX2-66" style="edgeStyle=orthogonalEdgeStyle;rounded=0;orthogonalLoop=1;jettySize=auto;html=1;exitX=0.5;exitY=1;exitDx=0;exitDy=0;entryX=0.5;entryY=0;entryDx=0;entryDy=0;" edge="1" parent="WIyWlLk6GJQsqaUBKTNV-1" source="pjBFuyBz4JkAL8npBEX2-16" target="pjBFuyBz4JkAL8npBEX2-64">
          <mxGeometry relative="1" as="geometry" />
        </mxCell>
        <mxCell id="pjBFuyBz4JkAL8npBEX2-16" value="Room Connect&lt;br&gt;@ Func 1 : RoomAutoJoin" style="rounded=0;whiteSpace=wrap;html=1;" vertex="1" parent="WIyWlLk6GJQsqaUBKTNV-1">
          <mxGeometry x="40" y="250" width="200" height="40" as="geometry" />
        </mxCell>
        <mxCell id="pjBFuyBz4JkAL8npBEX2-24" value="YES" style="edgeStyle=orthogonalEdgeStyle;rounded=0;orthogonalLoop=1;jettySize=auto;html=1;exitX=0.5;exitY=1;exitDx=0;exitDy=0;entryX=0.5;entryY=0;entryDx=0;entryDy=0;" edge="1" parent="WIyWlLk6GJQsqaUBKTNV-1" source="pjBFuyBz4JkAL8npBEX2-18" target="pjBFuyBz4JkAL8npBEX2-23">
          <mxGeometry relative="1" as="geometry" />
        </mxCell>
        <mxCell id="pjBFuyBz4JkAL8npBEX2-68" value="NO" style="edgeStyle=orthogonalEdgeStyle;rounded=0;orthogonalLoop=1;jettySize=auto;html=1;exitX=1;exitY=0.5;exitDx=0;exitDy=0;entryX=0;entryY=0.5;entryDx=0;entryDy=0;" edge="1" parent="WIyWlLk6GJQsqaUBKTNV-1" source="pjBFuyBz4JkAL8npBEX2-18" target="pjBFuyBz4JkAL8npBEX2-20">
          <mxGeometry relative="1" as="geometry" />
        </mxCell>
        <mxCell id="pjBFuyBz4JkAL8npBEX2-18" value="Admin?" style="rhombus;whiteSpace=wrap;html=1;" vertex="1" parent="WIyWlLk6GJQsqaUBKTNV-1">
          <mxGeometry x="100" y="410" width="80" height="80" as="geometry" />
        </mxCell>
        <mxCell id="pjBFuyBz4JkAL8npBEX2-31" style="edgeStyle=orthogonalEdgeStyle;rounded=0;orthogonalLoop=1;jettySize=auto;html=1;exitX=0.5;exitY=1;exitDx=0;exitDy=0;entryX=0.5;entryY=0;entryDx=0;entryDy=0;" edge="1" parent="WIyWlLk6GJQsqaUBKTNV-1" target="pjBFuyBz4JkAL8npBEX2-30">
          <mxGeometry relative="1" as="geometry">
            <mxPoint x="340" y="459.0000000000002" as="sourcePoint" />
          </mxGeometry>
        </mxCell>
        <mxCell id="pjBFuyBz4JkAL8npBEX2-20" value="Game Client" style="rounded=0;whiteSpace=wrap;html=1;" vertex="1" parent="WIyWlLk6GJQsqaUBKTNV-1">
          <mxGeometry x="280" y="430" width="120" height="40" as="geometry" />
        </mxCell>
        <mxCell id="pjBFuyBz4JkAL8npBEX2-28" style="edgeStyle=orthogonalEdgeStyle;rounded=0;orthogonalLoop=1;jettySize=auto;html=1;exitX=0.5;exitY=1;exitDx=0;exitDy=0;entryX=0.5;entryY=0;entryDx=0;entryDy=0;" edge="1" parent="WIyWlLk6GJQsqaUBKTNV-1" source="pjBFuyBz4JkAL8npBEX2-23" target="pjBFuyBz4JkAL8npBEX2-27">
          <mxGeometry relative="1" as="geometry" />
        </mxCell>
        <mxCell id="pjBFuyBz4JkAL8npBEX2-23" value="Admin Page Load" style="rounded=0;whiteSpace=wrap;html=1;" vertex="1" parent="WIyWlLk6GJQsqaUBKTNV-1">
          <mxGeometry x="40" y="529" width="200" height="40" as="geometry" />
        </mxCell>
        <mxCell id="pjBFuyBz4JkAL8npBEX2-33" style="edgeStyle=orthogonalEdgeStyle;rounded=0;orthogonalLoop=1;jettySize=auto;html=1;exitX=1;exitY=0.5;exitDx=0;exitDy=0;entryX=0;entryY=0.5;entryDx=0;entryDy=0;" edge="1" parent="WIyWlLk6GJQsqaUBKTNV-1" source="pjBFuyBz4JkAL8npBEX2-27" target="pjBFuyBz4JkAL8npBEX2-32">
          <mxGeometry relative="1" as="geometry" />
        </mxCell>
        <mxCell id="pjBFuyBz4JkAL8npBEX2-27" value="Admin Page" style="swimlane;whiteSpace=wrap;html=1;" vertex="1" parent="WIyWlLk6GJQsqaUBKTNV-1">
          <mxGeometry x="40" y="609" width="200" height="160" as="geometry" />
        </mxCell>
        <mxCell id="pjBFuyBz4JkAL8npBEX2-29" value="[Check List ]&lt;br&gt;1. Server Connect Status&amp;nbsp;&lt;br&gt;2. Room In Person Count&lt;br&gt;3. Room in Person NIckname&lt;br&gt;&lt;br&gt;[ Method ]&lt;br&gt;1. Game Start&lt;br&gt;2. Game Reset" style="text;html=1;align=left;verticalAlign=middle;resizable=0;points=[];autosize=1;strokeColor=none;fillColor=none;" vertex="1" parent="pjBFuyBz4JkAL8npBEX2-27">
          <mxGeometry y="25" width="180" height="130" as="geometry" />
        </mxCell>
        <mxCell id="pjBFuyBz4JkAL8npBEX2-34" style="edgeStyle=orthogonalEdgeStyle;rounded=0;orthogonalLoop=1;jettySize=auto;html=1;exitX=0.5;exitY=1;exitDx=0;exitDy=0;entryX=0.5;entryY=0;entryDx=0;entryDy=0;" edge="1" parent="WIyWlLk6GJQsqaUBKTNV-1" source="pjBFuyBz4JkAL8npBEX2-30" target="pjBFuyBz4JkAL8npBEX2-32">
          <mxGeometry relative="1" as="geometry" />
        </mxCell>
        <mxCell id="pjBFuyBz4JkAL8npBEX2-30" value="Wait Game" style="rounded=0;whiteSpace=wrap;html=1;" vertex="1" parent="WIyWlLk6GJQsqaUBKTNV-1">
          <mxGeometry x="280" y="529" width="120" height="40" as="geometry" />
        </mxCell>
        <mxCell id="pjBFuyBz4JkAL8npBEX2-41" style="edgeStyle=orthogonalEdgeStyle;rounded=0;orthogonalLoop=1;jettySize=auto;html=1;exitX=0.5;exitY=1;exitDx=0;exitDy=0;entryX=0.5;entryY=0;entryDx=0;entryDy=0;" edge="1" parent="WIyWlLk6GJQsqaUBKTNV-1" source="pjBFuyBz4JkAL8npBEX2-32" target="pjBFuyBz4JkAL8npBEX2-40">
          <mxGeometry relative="1" as="geometry" />
        </mxCell>
        <mxCell id="pjBFuyBz4JkAL8npBEX2-57" style="edgeStyle=orthogonalEdgeStyle;rounded=0;orthogonalLoop=1;jettySize=auto;html=1;exitX=0.5;exitY=1;exitDx=0;exitDy=0;entryX=0.5;entryY=0;entryDx=0;entryDy=0;" edge="1" parent="WIyWlLk6GJQsqaUBKTNV-1" source="pjBFuyBz4JkAL8npBEX2-32" target="pjBFuyBz4JkAL8npBEX2-56">
          <mxGeometry relative="1" as="geometry" />
        </mxCell>
        <mxCell id="pjBFuyBz4JkAL8npBEX2-73" style="edgeStyle=orthogonalEdgeStyle;rounded=0;orthogonalLoop=1;jettySize=auto;html=1;exitX=0.5;exitY=1;exitDx=0;exitDy=0;" edge="1" parent="WIyWlLk6GJQsqaUBKTNV-1" source="pjBFuyBz4JkAL8npBEX2-32" target="pjBFuyBz4JkAL8npBEX2-72">
          <mxGeometry relative="1" as="geometry" />
        </mxCell>
        <mxCell id="pjBFuyBz4JkAL8npBEX2-32" value="Start Game" style="rounded=0;whiteSpace=wrap;html=1;" vertex="1" parent="WIyWlLk6GJQsqaUBKTNV-1">
          <mxGeometry x="280" y="669" width="120" height="40" as="geometry" />
        </mxCell>
        <mxCell id="pjBFuyBz4JkAL8npBEX2-39" style="edgeStyle=orthogonalEdgeStyle;rounded=0;orthogonalLoop=1;jettySize=auto;html=1;exitX=0;exitY=0.5;exitDx=0;exitDy=0;entryX=1;entryY=0.5;entryDx=0;entryDy=0;" edge="1" parent="WIyWlLk6GJQsqaUBKTNV-1" source="pjBFuyBz4JkAL8npBEX2-36" target="pjBFuyBz4JkAL8npBEX2-30">
          <mxGeometry relative="1" as="geometry" />
        </mxCell>
        <mxCell id="pjBFuyBz4JkAL8npBEX2-36" value="Wait UI&amp;nbsp;&lt;br&gt;Portal" style="rounded=0;whiteSpace=wrap;html=1;" vertex="1" parent="WIyWlLk6GJQsqaUBKTNV-1">
          <mxGeometry x="450" y="529" width="120" height="40" as="geometry" />
        </mxCell>
        <mxCell id="pjBFuyBz4JkAL8npBEX2-43" style="edgeStyle=orthogonalEdgeStyle;rounded=0;orthogonalLoop=1;jettySize=auto;html=1;exitX=0.5;exitY=1;exitDx=0;exitDy=0;entryX=0.5;entryY=0;entryDx=0;entryDy=0;" edge="1" parent="WIyWlLk6GJQsqaUBKTNV-1" source="pjBFuyBz4JkAL8npBEX2-40" target="pjBFuyBz4JkAL8npBEX2-42">
          <mxGeometry relative="1" as="geometry" />
        </mxCell>
        <mxCell id="pjBFuyBz4JkAL8npBEX2-47" style="edgeStyle=orthogonalEdgeStyle;rounded=0;orthogonalLoop=1;jettySize=auto;html=1;exitX=0.5;exitY=1;exitDx=0;exitDy=0;entryX=0.5;entryY=0;entryDx=0;entryDy=0;" edge="1" parent="WIyWlLk6GJQsqaUBKTNV-1" source="pjBFuyBz4JkAL8npBEX2-40" target="pjBFuyBz4JkAL8npBEX2-46">
          <mxGeometry relative="1" as="geometry" />
        </mxCell>
        <mxCell id="pjBFuyBz4JkAL8npBEX2-40" value="OVR" style="rounded=0;whiteSpace=wrap;html=1;" vertex="1" parent="WIyWlLk6GJQsqaUBKTNV-1">
          <mxGeometry x="120" y="849" width="120" height="40" as="geometry" />
        </mxCell>
        <mxCell id="pjBFuyBz4JkAL8npBEX2-45" style="edgeStyle=orthogonalEdgeStyle;rounded=0;orthogonalLoop=1;jettySize=auto;html=1;exitX=0.5;exitY=1;exitDx=0;exitDy=0;entryX=0.5;entryY=0;entryDx=0;entryDy=0;" edge="1" parent="WIyWlLk6GJQsqaUBKTNV-1" source="pjBFuyBz4JkAL8npBEX2-42" target="pjBFuyBz4JkAL8npBEX2-44">
          <mxGeometry relative="1" as="geometry" />
        </mxCell>
        <mxCell id="pjBFuyBz4JkAL8npBEX2-42" value="Hand Tracking" style="rounded=0;whiteSpace=wrap;html=1;" vertex="1" parent="WIyWlLk6GJQsqaUBKTNV-1">
          <mxGeometry x="40" y="929" width="120" height="40" as="geometry" />
        </mxCell>
        <mxCell id="pjBFuyBz4JkAL8npBEX2-52" style="edgeStyle=orthogonalEdgeStyle;rounded=0;orthogonalLoop=1;jettySize=auto;html=1;exitX=1;exitY=0.5;exitDx=0;exitDy=0;entryX=0;entryY=0.25;entryDx=0;entryDy=0;" edge="1" parent="WIyWlLk6GJQsqaUBKTNV-1" source="pjBFuyBz4JkAL8npBEX2-44" target="pjBFuyBz4JkAL8npBEX2-51">
          <mxGeometry relative="1" as="geometry" />
        </mxCell>
        <mxCell id="pjBFuyBz4JkAL8npBEX2-44" value="Detect Pose" style="rounded=0;whiteSpace=wrap;html=1;" vertex="1" parent="WIyWlLk6GJQsqaUBKTNV-1">
          <mxGeometry x="40" y="1009" width="120" height="40" as="geometry" />
        </mxCell>
        <mxCell id="pjBFuyBz4JkAL8npBEX2-46" value="Hand ( Clone )" style="rounded=0;whiteSpace=wrap;html=1;" vertex="1" parent="WIyWlLk6GJQsqaUBKTNV-1">
          <mxGeometry x="200" y="929" width="120" height="40" as="geometry" />
        </mxCell>
        <mxCell id="pjBFuyBz4JkAL8npBEX2-62" style="edgeStyle=orthogonalEdgeStyle;rounded=0;orthogonalLoop=1;jettySize=auto;html=1;exitX=0.5;exitY=0;exitDx=0;exitDy=0;entryX=0.5;entryY=1;entryDx=0;entryDy=0;" edge="1" parent="WIyWlLk6GJQsqaUBKTNV-1" source="pjBFuyBz4JkAL8npBEX2-49" target="pjBFuyBz4JkAL8npBEX2-51">
          <mxGeometry relative="1" as="geometry" />
        </mxCell>
        <mxCell id="pjBFuyBz4JkAL8npBEX2-49" value="&amp;nbsp;Grab Pose" style="rounded=0;whiteSpace=wrap;html=1;" vertex="1" parent="WIyWlLk6GJQsqaUBKTNV-1">
          <mxGeometry x="270" y="1129" width="120" height="40" as="geometry" />
        </mxCell>
        <mxCell id="pjBFuyBz4JkAL8npBEX2-63" style="edgeStyle=orthogonalEdgeStyle;rounded=0;orthogonalLoop=1;jettySize=auto;html=1;exitX=0.5;exitY=0;exitDx=0;exitDy=0;entryX=0.5;entryY=1;entryDx=0;entryDy=0;" edge="1" parent="WIyWlLk6GJQsqaUBKTNV-1" source="pjBFuyBz4JkAL8npBEX2-50" target="pjBFuyBz4JkAL8npBEX2-51">
          <mxGeometry relative="1" as="geometry" />
        </mxCell>
        <mxCell id="pjBFuyBz4JkAL8npBEX2-50" value="Gun Pose" style="rounded=0;whiteSpace=wrap;html=1;" vertex="1" parent="WIyWlLk6GJQsqaUBKTNV-1">
          <mxGeometry x="130" y="1129" width="120" height="40" as="geometry" />
        </mxCell>
        <mxCell id="pjBFuyBz4JkAL8npBEX2-53" style="edgeStyle=orthogonalEdgeStyle;rounded=0;orthogonalLoop=1;jettySize=auto;html=1;exitX=0.5;exitY=0;exitDx=0;exitDy=0;entryX=0.5;entryY=1;entryDx=0;entryDy=0;" edge="1" parent="WIyWlLk6GJQsqaUBKTNV-1" source="pjBFuyBz4JkAL8npBEX2-51" target="pjBFuyBz4JkAL8npBEX2-46">
          <mxGeometry relative="1" as="geometry" />
        </mxCell>
        <mxCell id="pjBFuyBz4JkAL8npBEX2-51" value="Detect Pose.cs&lt;br&gt;@ Func : Send Anim" style="rounded=0;whiteSpace=wrap;html=1;" vertex="1" parent="WIyWlLk6GJQsqaUBKTNV-1">
          <mxGeometry x="200" y="1009" width="120" height="80" as="geometry" />
        </mxCell>
        <mxCell id="pjBFuyBz4JkAL8npBEX2-60" style="edgeStyle=orthogonalEdgeStyle;rounded=0;orthogonalLoop=1;jettySize=auto;html=1;exitX=0.5;exitY=1;exitDx=0;exitDy=0;entryX=0.75;entryY=0;entryDx=0;entryDy=0;" edge="1" parent="WIyWlLk6GJQsqaUBKTNV-1" source="pjBFuyBz4JkAL8npBEX2-56" target="pjBFuyBz4JkAL8npBEX2-46">
          <mxGeometry relative="1" as="geometry" />
        </mxCell>
        <mxCell id="pjBFuyBz4JkAL8npBEX2-61" style="edgeStyle=orthogonalEdgeStyle;rounded=0;orthogonalLoop=1;jettySize=auto;html=1;exitX=0.5;exitY=1;exitDx=0;exitDy=0;entryX=0.5;entryY=0;entryDx=0;entryDy=0;" edge="1" parent="WIyWlLk6GJQsqaUBKTNV-1" source="pjBFuyBz4JkAL8npBEX2-56" target="pjBFuyBz4JkAL8npBEX2-59">
          <mxGeometry relative="1" as="geometry" />
        </mxCell>
        <mxCell id="pjBFuyBz4JkAL8npBEX2-56" value="Spawn System" style="rounded=0;whiteSpace=wrap;html=1;" vertex="1" parent="WIyWlLk6GJQsqaUBKTNV-1">
          <mxGeometry x="440" y="849" width="120" height="40" as="geometry" />
        </mxCell>
        <mxCell id="pjBFuyBz4JkAL8npBEX2-71" style="edgeStyle=orthogonalEdgeStyle;rounded=0;orthogonalLoop=1;jettySize=auto;html=1;exitX=0.5;exitY=1;exitDx=0;exitDy=0;entryX=0.5;entryY=0;entryDx=0;entryDy=0;" edge="1" parent="WIyWlLk6GJQsqaUBKTNV-1" source="pjBFuyBz4JkAL8npBEX2-59" target="pjBFuyBz4JkAL8npBEX2-69">
          <mxGeometry relative="1" as="geometry" />
        </mxCell>
        <mxCell id="pjBFuyBz4JkAL8npBEX2-59" value="Monster ( Clone )" style="rounded=0;whiteSpace=wrap;html=1;" vertex="1" parent="WIyWlLk6GJQsqaUBKTNV-1">
          <mxGeometry x="440" y="929" width="120" height="40" as="geometry" />
        </mxCell>
        <mxCell id="pjBFuyBz4JkAL8npBEX2-67" style="edgeStyle=orthogonalEdgeStyle;rounded=0;orthogonalLoop=1;jettySize=auto;html=1;exitX=0.5;exitY=1;exitDx=0;exitDy=0;entryX=0.5;entryY=0;entryDx=0;entryDy=0;" edge="1" parent="WIyWlLk6GJQsqaUBKTNV-1" source="pjBFuyBz4JkAL8npBEX2-64" target="pjBFuyBz4JkAL8npBEX2-18">
          <mxGeometry relative="1" as="geometry" />
        </mxCell>
        <mxCell id="pjBFuyBz4JkAL8npBEX2-92" style="edgeStyle=orthogonalEdgeStyle;rounded=0;orthogonalLoop=1;jettySize=auto;html=1;exitX=1;exitY=0.5;exitDx=0;exitDy=0;entryX=0;entryY=0.5;entryDx=0;entryDy=0;" edge="1" parent="WIyWlLk6GJQsqaUBKTNV-1" source="pjBFuyBz4JkAL8npBEX2-64" target="pjBFuyBz4JkAL8npBEX2-91">
          <mxGeometry relative="1" as="geometry" />
        </mxCell>
        <mxCell id="pjBFuyBz4JkAL8npBEX2-64" value="Read File&lt;br&gt;@ Func 1 : Read Account File&lt;br&gt;@ FileType : Xml&amp;nbsp; &amp;nbsp; &amp;nbsp; &amp;nbsp; &amp;nbsp; &amp;nbsp; &amp;nbsp; &amp;nbsp; &amp;nbsp; &amp;nbsp;&amp;nbsp;" style="rounded=0;whiteSpace=wrap;html=1;" vertex="1" parent="WIyWlLk6GJQsqaUBKTNV-1">
          <mxGeometry x="40" y="320" width="200" height="50" as="geometry" />
        </mxCell>
        <mxCell id="pjBFuyBz4JkAL8npBEX2-69" value="Monster Info" style="swimlane;whiteSpace=wrap;html=1;" vertex="1" parent="WIyWlLk6GJQsqaUBKTNV-1">
          <mxGeometry x="440" y="1000" width="120" height="80" as="geometry" />
        </mxCell>
        <mxCell id="pjBFuyBz4JkAL8npBEX2-70" value="1. Damage&lt;br&gt;2. Move Speed&lt;br&gt;3. Dead Wait" style="text;html=1;align=left;verticalAlign=middle;resizable=0;points=[];autosize=1;strokeColor=none;fillColor=none;" vertex="1" parent="pjBFuyBz4JkAL8npBEX2-69">
          <mxGeometry y="19" width="100" height="60" as="geometry" />
        </mxCell>
        <mxCell id="pjBFuyBz4JkAL8npBEX2-75" style="edgeStyle=orthogonalEdgeStyle;rounded=0;orthogonalLoop=1;jettySize=auto;html=1;exitX=0.5;exitY=1;exitDx=0;exitDy=0;entryX=0.5;entryY=0;entryDx=0;entryDy=0;" edge="1" parent="WIyWlLk6GJQsqaUBKTNV-1" source="pjBFuyBz4JkAL8npBEX2-72" target="pjBFuyBz4JkAL8npBEX2-74">
          <mxGeometry relative="1" as="geometry" />
        </mxCell>
        <mxCell id="pjBFuyBz4JkAL8npBEX2-77" style="edgeStyle=orthogonalEdgeStyle;rounded=0;orthogonalLoop=1;jettySize=auto;html=1;exitX=0.5;exitY=1;exitDx=0;exitDy=0;entryX=0.5;entryY=0;entryDx=0;entryDy=0;" edge="1" parent="WIyWlLk6GJQsqaUBKTNV-1" source="pjBFuyBz4JkAL8npBEX2-72" target="pjBFuyBz4JkAL8npBEX2-76">
          <mxGeometry relative="1" as="geometry" />
        </mxCell>
        <mxCell id="pjBFuyBz4JkAL8npBEX2-72" value="Clear System" style="rounded=0;whiteSpace=wrap;html=1;" vertex="1" parent="WIyWlLk6GJQsqaUBKTNV-1">
          <mxGeometry x="700" y="849" width="120" height="40" as="geometry" />
        </mxCell>
        <mxCell id="pjBFuyBz4JkAL8npBEX2-81" style="edgeStyle=orthogonalEdgeStyle;rounded=0;orthogonalLoop=1;jettySize=auto;html=1;exitX=0.5;exitY=1;exitDx=0;exitDy=0;entryX=0.5;entryY=0;entryDx=0;entryDy=0;" edge="1" parent="WIyWlLk6GJQsqaUBKTNV-1" source="pjBFuyBz4JkAL8npBEX2-74" target="pjBFuyBz4JkAL8npBEX2-80">
          <mxGeometry relative="1" as="geometry" />
        </mxCell>
        <mxCell id="pjBFuyBz4JkAL8npBEX2-74" value="Timer System" style="rounded=0;whiteSpace=wrap;html=1;" vertex="1" parent="WIyWlLk6GJQsqaUBKTNV-1">
          <mxGeometry x="630" y="929" width="120" height="40" as="geometry" />
        </mxCell>
        <mxCell id="pjBFuyBz4JkAL8npBEX2-83" style="edgeStyle=orthogonalEdgeStyle;rounded=0;orthogonalLoop=1;jettySize=auto;html=1;exitX=0.5;exitY=1;exitDx=0;exitDy=0;" edge="1" parent="WIyWlLk6GJQsqaUBKTNV-1" source="pjBFuyBz4JkAL8npBEX2-76" target="pjBFuyBz4JkAL8npBEX2-82">
          <mxGeometry relative="1" as="geometry" />
        </mxCell>
        <mxCell id="pjBFuyBz4JkAL8npBEX2-76" value="Hp System" style="rounded=0;whiteSpace=wrap;html=1;" vertex="1" parent="WIyWlLk6GJQsqaUBKTNV-1">
          <mxGeometry x="770" y="929" width="120" height="40" as="geometry" />
        </mxCell>
        <mxCell id="pjBFuyBz4JkAL8npBEX2-88" style="edgeStyle=orthogonalEdgeStyle;rounded=0;orthogonalLoop=1;jettySize=auto;html=1;exitX=1;exitY=0.5;exitDx=0;exitDy=0;entryX=0;entryY=0.5;entryDx=0;entryDy=0;" edge="1" parent="WIyWlLk6GJQsqaUBKTNV-1" source="pjBFuyBz4JkAL8npBEX2-78" target="pjBFuyBz4JkAL8npBEX2-87">
          <mxGeometry relative="1" as="geometry" />
        </mxCell>
        <mxCell id="pjBFuyBz4JkAL8npBEX2-78" value="Game Clear" style="rounded=0;whiteSpace=wrap;html=1;" vertex="1" parent="WIyWlLk6GJQsqaUBKTNV-1">
          <mxGeometry x="40" y="1280" width="120" height="40" as="geometry" />
        </mxCell>
        <mxCell id="pjBFuyBz4JkAL8npBEX2-79" style="edgeStyle=orthogonalEdgeStyle;rounded=0;orthogonalLoop=1;jettySize=auto;html=1;entryX=0;entryY=0.5;entryDx=0;entryDy=0;exitX=0;exitY=0.508;exitDx=0;exitDy=0;exitPerimeter=0;" edge="1" parent="WIyWlLk6GJQsqaUBKTNV-1" source="pjBFuyBz4JkAL8npBEX2-29" target="pjBFuyBz4JkAL8npBEX2-78">
          <mxGeometry relative="1" as="geometry">
            <mxPoint x="80" y="770" as="sourcePoint" />
          </mxGeometry>
        </mxCell>
        <mxCell id="pjBFuyBz4JkAL8npBEX2-86" style="edgeStyle=orthogonalEdgeStyle;rounded=0;orthogonalLoop=1;jettySize=auto;html=1;exitX=0.5;exitY=1;exitDx=0;exitDy=0;entryX=0.5;entryY=0;entryDx=0;entryDy=0;" edge="1" parent="WIyWlLk6GJQsqaUBKTNV-1" source="pjBFuyBz4JkAL8npBEX2-80" target="pjBFuyBz4JkAL8npBEX2-78">
          <mxGeometry relative="1" as="geometry" />
        </mxCell>
        <mxCell id="pjBFuyBz4JkAL8npBEX2-80" value="Timer &amp;gt; Absolute" style="rhombus;whiteSpace=wrap;html=1;" vertex="1" parent="WIyWlLk6GJQsqaUBKTNV-1">
          <mxGeometry x="634.5" y="1000" width="111" height="111" as="geometry" />
        </mxCell>
        <mxCell id="pjBFuyBz4JkAL8npBEX2-85" value="YES" style="edgeStyle=orthogonalEdgeStyle;rounded=0;orthogonalLoop=1;jettySize=auto;html=1;exitX=0.5;exitY=1;exitDx=0;exitDy=0;entryX=0.5;entryY=0;entryDx=0;entryDy=0;" edge="1" parent="WIyWlLk6GJQsqaUBKTNV-1" source="pjBFuyBz4JkAL8npBEX2-82" target="pjBFuyBz4JkAL8npBEX2-78">
          <mxGeometry relative="1" as="geometry" />
        </mxCell>
        <mxCell id="pjBFuyBz4JkAL8npBEX2-82" value="Hp &amp;gt; Absolute" style="rhombus;whiteSpace=wrap;html=1;" vertex="1" parent="WIyWlLk6GJQsqaUBKTNV-1">
          <mxGeometry x="774.5" y="1000" width="111" height="111" as="geometry" />
        </mxCell>
        <mxCell id="pjBFuyBz4JkAL8npBEX2-90" style="edgeStyle=orthogonalEdgeStyle;rounded=0;orthogonalLoop=1;jettySize=auto;html=1;exitX=1;exitY=0.5;exitDx=0;exitDy=0;entryX=0;entryY=0.5;entryDx=0;entryDy=0;" edge="1" parent="WIyWlLk6GJQsqaUBKTNV-1" source="pjBFuyBz4JkAL8npBEX2-87" target="pjBFuyBz4JkAL8npBEX2-89">
          <mxGeometry relative="1" as="geometry" />
        </mxCell>
        <mxCell id="pjBFuyBz4JkAL8npBEX2-87" value="Anim System" style="rounded=0;whiteSpace=wrap;html=1;" vertex="1" parent="WIyWlLk6GJQsqaUBKTNV-1">
          <mxGeometry x="200" y="1280" width="120" height="40" as="geometry" />
        </mxCell>
        <mxCell id="pjBFuyBz4JkAL8npBEX2-89" value="Black Out" style="rounded=0;whiteSpace=wrap;html=1;" vertex="1" parent="WIyWlLk6GJQsqaUBKTNV-1">
          <mxGeometry x="360" y="1280" width="120" height="40" as="geometry" />
        </mxCell>
        <mxCell id="pjBFuyBz4JkAL8npBEX2-98" style="edgeStyle=orthogonalEdgeStyle;rounded=0;orthogonalLoop=1;jettySize=auto;html=1;exitX=0.5;exitY=0;exitDx=0;exitDy=0;entryX=0.5;entryY=1;entryDx=0;entryDy=0;" edge="1" parent="WIyWlLk6GJQsqaUBKTNV-1" source="pjBFuyBz4JkAL8npBEX2-91" target="pjBFuyBz4JkAL8npBEX2-94">
          <mxGeometry relative="1" as="geometry" />
        </mxCell>
        <mxCell id="pjBFuyBz4JkAL8npBEX2-91" value="Oculus File System" style="rounded=0;whiteSpace=wrap;html=1;" vertex="1" parent="WIyWlLk6GJQsqaUBKTNV-1">
          <mxGeometry x="330" y="325" width="120" height="40" as="geometry" />
        </mxCell>
        <mxCell id="pjBFuyBz4JkAL8npBEX2-94" value="Oculus File Locate" style="swimlane;whiteSpace=wrap;html=1;" vertex="1" parent="WIyWlLk6GJQsqaUBKTNV-1">
          <mxGeometry x="285" y="200" width="210" height="115" as="geometry" />
        </mxCell>
        <mxCell id="pjBFuyBz4JkAL8npBEX2-95" value="Foler Root : StreamingAssetFolder&lt;br&gt;File Name : Account.xml&lt;br&gt;Account : [Admin ,&amp;nbsp; Client ]&lt;br&gt;Name : [ Admin, Client ]&lt;br&gt;Hand Pos : [Right, Left ]" style="text;html=1;align=left;verticalAlign=middle;resizable=0;points=[];autosize=1;strokeColor=none;fillColor=none;" vertex="1" parent="pjBFuyBz4JkAL8npBEX2-94">
          <mxGeometry y="20" width="210" height="90" as="geometry" />
        </mxCell>
        <mxCell id="pjBFuyBz4JkAL8npBEX2-101" style="edgeStyle=orthogonalEdgeStyle;rounded=0;orthogonalLoop=1;jettySize=auto;html=1;exitX=0.5;exitY=1;exitDx=0;exitDy=0;entryX=0.5;entryY=0;entryDx=0;entryDy=0;" edge="1" parent="WIyWlLk6GJQsqaUBKTNV-1" source="pjBFuyBz4JkAL8npBEX2-99" target="pjBFuyBz4JkAL8npBEX2-100">
          <mxGeometry relative="1" as="geometry" />
        </mxCell>
        <mxCell id="pjBFuyBz4JkAL8npBEX2-99" value="OVR Android Support System" style="rounded=0;whiteSpace=wrap;html=1;" vertex="1" parent="WIyWlLk6GJQsqaUBKTNV-1">
          <mxGeometry x="600" y="365" width="200" height="40" as="geometry" />
        </mxCell>
        <mxCell id="pjBFuyBz4JkAL8npBEX2-102" style="edgeStyle=orthogonalEdgeStyle;rounded=0;orthogonalLoop=1;jettySize=auto;html=1;exitX=0;exitY=0.5;exitDx=0;exitDy=0;" edge="1" parent="WIyWlLk6GJQsqaUBKTNV-1" source="pjBFuyBz4JkAL8npBEX2-100" target="pjBFuyBz4JkAL8npBEX2-20">
          <mxGeometry relative="1" as="geometry" />
        </mxCell>
        <mxCell id="pjBFuyBz4JkAL8npBEX2-100" value="OVR Init HMD" style="rounded=0;whiteSpace=wrap;html=1;" vertex="1" parent="WIyWlLk6GJQsqaUBKTNV-1">
          <mxGeometry x="600" y="430" width="200" height="40" as="geometry" />
        </mxCell>
      </root>
    </mxGraphModel>
  </diagram>
</mxfile>
